<svg
    width="385"
    height="410"
    viewBox="0 0 385 410">
    <rect
        style="fill:#000000;stroke-width:0.295812"
        id="base"
        width="250"
        height="10"
        x="0"
        y="400"
        inkscape:label="#base" />
    <rect
        style="fill:#000000;stroke-width:0.187088"
        id="right-leg"
        width="9.99998"
        height="100.00027"
        x="159.46925"
        y="343.79422"
        transform="matrix(0.86602338,-0.50000351,0.49999649,0.86602743,0,0)" />
    <rect
        style="fill:#000000;stroke-width:0.187087"
        id="left-leg"
        width="9.999979"
        height="100.00027"
        x="374.96756"
        y="29.462006"
        transform="matrix(0.86602338,0.5000035,-0.49999651,0.86602742,0,0)" />
    <rect
        style="fill:#000000;stroke-width:0.167336"
        id="right-arm"
        width="79.999863"
        height="9.9999599"
        x="188.46736"
        y="293.56348"
        transform="matrix(0.86602643,-0.49999822,0.50000179,0.86602437,0,0)" />
    <rect
        style="fill:#000000;stroke-width:0.167336"
        id="left-arm"
        width="79.999863"
        height="9.9999599"
        x="276.50632"
        y="-21.076384"
        transform="matrix(0.86602643,0.49999822,-0.50000179,0.86602437,0,0)" />
    <rect
        style="fill:#000000;stroke-width:0.187088"
        id="man-body"
        width="10"
        height="100"
        x="310"
        y="118" />
    <rect
        style="fill:#000000;stroke-width:0.374177"
        id="stand"
        width="10"
        height="400"
        x="120"
        y="5.5511151e-17"
        inkscape:label="#stand" />
    <rect
        style="fill:#000000;stroke-width:0.264582"
        id="console"
        width="200"
        height="10"
        x="120"
        y="-1.7763568e-15" />
    <rect
        style="fill:#000000;stroke-width:0.132291"
        id="console2"
        width="10"
        height="50"
        x="310"
        y="0" />
    <ellipse
        style="fill:none;stroke:#000000;stroke-width:11.6667;stroke-dasharray:none;stroke-opacity:1"
        id="man-head"
        cx="315"
        cy="84"
        rx="29.16666"
        ry="29.166658" />
</svg>
